<svg data-name="Layer 1" viewBox="0 0 64 64" xmlns="http://www.w3.org/2000/svg"><path d="M46 46.45h-.94v-2.59a2.2 2.2 0 0 0-2.2-2.2h-5L37 27.29h1a2.19 2.19 0 0 0 2.19-2.19v-1.52H45v-7.43A2.2 2.2 0 0 0 42.82 14H41a2.2 2.2 0 0 0-2.2 2.2v.8h-2.72v-4.83a2.2 2.2 0 0 0-2.2-2.17h-3.76a2.2 2.2 0 0 0-2.2 2.19V17h-2.71v-.79A2.2 2.2 0 0 0 23 14h-1.82A2.2 2.2 0 0 0 19 16.17v7.41h4.8v1.52a2.19 2.19 0 0 0 2.2 2.19h1l-.88 14.37h-5a2.2 2.2 0 0 0-2.2 2.2v2.59H18a2.2 2.2 0 0 0-2.2 2.19V54h32.4v-5.36a2.2 2.2 0 0 0-2.2-2.19ZM21 21.58v-5.41a.2.2 0 0 1 .19-.2H23a.2.2 0 0 1 .2.2V19h6.71v-6.83a.2.2 0 0 1 .2-.19h3.76a.2.2 0 0 1 .2.19V19h6.71v-2.85A.2.2 0 0 1 41 16h1.83a.2.2 0 0 1 .19.2v5.43h-2.8v-.51H23.79v.51Zm5 3.71a.19.19 0 0 1-.19-.19v-2h12.4v2a.19.19 0 0 1-.19.19H26Zm3 2h6l.88 14.37h-7.77Zm-8 16.57a.2.2 0 0 1 .2-.2h21.66a.2.2 0 0 1 .2.2v2.59H20.94ZM46.2 52H17.8v-3.36a.2.2 0 0 1 .2-.19h28a.2.2 0 0 1 .2.19Z" fill="#8d8d8d" class="fill-231f20"></path></svg>